<svg xmlns="http://www.w3.org/2000/svg" width="128" height="128"><g fill="#fff" transform="translate(12.322 12.322)scale(.101)"><path fill="#478cbf" d="M105,673 L257,687 q12,1 15,14 l4,67 132,10 8,-61 q2,-11 15,-15 h162 q13,4 15,15 l8,61 132,-10 4,-67 q3,-13 15,-14 L919,673 C950,480 800,220 512,220 C224,220 50,480 105,673 Z M105,706 v39 c0,276 813,276 814,0 v-39 l-134,12 -5,69 q-2,10 -14,13 l-162,11 q-12,0 -16,-11 l-10,-65 H446 l-10,65 q-4,11 -16,11 l-162,-11 q-12,-3 -14,-13 l-5,-69 z"/><path fill="#478cbf" d="M105 673v33q407 354 814 0v-33z"/><path d="M483 720c0 34 58 34 58 0v-86c0-34-58-34-58 0z"/><circle cx="725" cy="566" r="90"/><circle cx="299" cy="566" r="90"/></g><g fill="#414042" transform="translate(12.322 12.322)scale(.101)"><circle cx="307" cy="572" r="60"/><circle cx="717" cy="572" r="60"/></g></svg>
